# xmcd
# Copyright (C) 1995-1998 Ti Kan
#
# Track frame offsets:
#       150
#       15386
#       31909
#       53232
#       67666
#       83360
#       96299
#       111003
#       126962
#       147558
#       165890
#       180417
#       198775
#       218498
#
# Disc length: 3205 seconds
#
# Revision: 0
# Processed by: cddbd v1.5.1PL0 Copyright (c) Steve Scherf et al.
# Submitted via: CD-Transfer v1.0
#
DISCID=a40c830e
DTITLE=Mirja - Häb Mi Fescht
DYEAR=2005
DGENRE=
TTITLE0=Irgendwo
TTITLE1=Der Himu Brönnt
TTITLE2=Häb Mi Fescht
TTITLE3=Uf Der Flucht
TTITLE4=Ybuidig
TTITLE5=I Gloube Dir Nümm
TTITLE6=Du Un I
TTITLE7=En Einzige Momänt
TTITLE8=Gib Mir Flügu
TTITLE9=Heilig
TTITLE10=I Weis Wiso
TTITLE11=Wär Isch Dä Maa?
TTITLE12=Was I A Dir Ha
TTITLE13=I Läbe Hütt
EXTD=
EXTT0=
EXTT1=
EXTT2=
EXTT3=
EXTT4=
EXTT5=
EXTT6=
EXTT7=
EXTT8=
EXTT9=
EXTT10=
EXTT11=
EXTT12=
EXTT13=
PLAYORDER=
